<?xml version="1.0" encoding="UTF-8"?>
<!DOCTYPE svg PUBLIC "-//W3C//DTD SVG 1.1//EN" "http://www.w3.org/Graphics/SVG/1.1/DTD/svg11.dtd">
<svg xmlns="http://www.w3.org/2000/svg" version="1.1" width="1738px" height="1738px" style="shape-rendering:geometricPrecision; text-rendering:geometricPrecision; image-rendering:optimizeQuality; fill-rule:evenodd; clip-rule:evenodd" xmlns:xlink="http://www.w3.org/1999/xlink">
<g><path style="opacity:1" fill="#feb9af" d="M 1676.5,438.5 C 1677.13,441.97 1676.13,444.804 1673.5,447C 1405.72,587.213 1139.06,728.879 873.5,872C 868.845,872.499 864.179,872.666 859.5,872.5C 858.508,872.672 857.842,872.338 857.5,871.5C 815.581,850.03 773.248,828.03 730.5,805.5C 635.016,755.593 540.016,704.927 445.5,653.5C 415.332,636.864 384.999,620.364 354.5,604C 349.036,600.932 343.369,598.432 337.5,596.5C 335.806,594.139 333.806,592.139 331.5,590.5C 295.396,572.282 259.063,554.282 222.5,536.5C 183.718,516.943 145.385,496.61 107.5,475.5C 106.294,471.635 103.627,469.635 99.5,469.5C 86.0483,464.776 73.0483,458.943 60.5,452C 58.145,448.738 56.4783,445.238 55.5,441.5C 55.2317,438.881 55.565,436.381 56.5,434C 68.2268,429.202 80.2268,425.202 92.5,422C 94.4456,418.119 97.1123,414.786 100.5,412C 126.609,397.612 153.276,384.279 180.5,372C 194.557,362.367 209.89,355.534 226.5,351.5C 226.055,348.635 226.722,346.135 228.5,344C 242.669,340.587 254.669,333.587 264.5,323C 265.5,322.333 266.5,322.333 267.5,323C 270.675,326.068 274.008,326.068 277.5,323C 343.444,282.022 412.11,245.689 483.5,214C 486.167,210.667 488.833,207.333 491.5,204C 518.359,190.57 545.692,178.236 573.5,167C 640.655,124.298 710.989,86.9645 784.5,55C 799.79,40.5199 817.79,31.0199 838.5,26.5C 838.642,23.383 839.976,20.883 842.5,19C 852.225,12.3128 862.892,9.97943 874.5,12C 1071.73,116.197 1268.56,221.03 1465,326.5C 1465.22,327.938 1465.72,329.271 1466.5,330.5C 1477.38,333.385 1488.04,336.885 1498.5,341C 1543.27,367.386 1589.27,391.719 1636.5,414C 1639.32,416.141 1640.65,418.975 1640.5,422.5C 1654.25,424.183 1666.25,429.516 1676.5,438.5 Z"/></g>
<g><path style="opacity:0.012" fill="#2a2f36" d="M 1401.5,166.5 C 1411.77,165.72 1421.77,167.553 1431.5,172C 1436.88,174.04 1440.04,177.873 1441,183.5C 1446.65,179.931 1450.48,181.431 1452.5,188C 1455.38,188.438 1458.04,189.438 1460.5,191C 1457.05,194.371 1454.22,193.871 1452,189.5C 1449.68,192.097 1446.85,192.93 1443.5,192C 1441.54,189.894 1439.71,187.727 1438,185.5C 1423.76,182.967 1411.6,176.633 1401.5,166.5 Z"/></g>
<g><path style="opacity:1" fill="#feafa1" d="M 1676.5,438.5 C 1678.07,473.653 1678.9,508.987 1679,544.5C 1681.69,771.493 1682.69,998.493 1682,1225.5C 1681.83,1247.17 1681.33,1268.84 1680.5,1290.5C 1527.15,1365.67 1376.48,1445.17 1228.5,1529C 1196.12,1540.85 1166.12,1556.85 1138.5,1577C 1136.25,1576.8 1134.42,1575.64 1133,1573.5C 1104.59,1589.29 1076.75,1605.95 1049.5,1623.5C 1047.85,1622.35 1046.35,1621.02 1045,1619.5C 1017.08,1634.87 989.918,1651.37 963.5,1669C 961.583,1668.97 959.916,1668.14 958.5,1666.5C 956.322,1669.18 953.989,1671.68 951.5,1674C 924.91,1685.8 898.91,1698.3 873.5,1711.5C 873.273,1707.86 871.773,1704.86 869,1702.5C 868.667,1694.17 868.333,1685.83 868,1677.5C 865.089,1409.16 862.256,1140.83 859.5,872.5C 864.179,872.666 868.845,872.499 873.5,872C 1139.06,728.879 1405.72,587.213 1673.5,447C 1676.13,444.804 1677.13,441.97 1676.5,438.5 Z"/></g>
<g><path style="opacity:1" fill="#f29d90" d="M 55.5,441.5 C 56.4783,445.238 58.145,448.738 60.5,452C 73.0483,458.943 86.0483,464.776 99.5,469.5C 101.004,472.931 103.671,474.931 107.5,475.5C 145.385,496.61 183.718,516.943 222.5,536.5C 257.545,555.023 292.878,573.023 328.5,590.5C 330.194,592.861 332.194,594.861 334.5,596.5C 340.955,598.721 347.288,601.554 353.5,605C 383.826,621.829 414.492,637.995 445.5,653.5C 540.016,704.927 635.016,755.593 730.5,805.5C 769.417,827.205 808.75,848.371 848.5,869C 851.353,870.43 854.353,871.263 857.5,871.5C 857.842,872.338 858.508,872.672 859.5,872.5C 862.256,1140.83 865.089,1409.16 868,1677.5C 868.333,1685.83 868.667,1694.17 869,1702.5C 871.773,1704.86 873.273,1707.86 873.5,1711.5C 870.901,1719.64 866.234,1721.14 859.5,1716C 855.217,1713.38 851.217,1710.38 847.5,1707C 806.833,1686.67 766.167,1666.33 725.5,1646C 722.538,1642.56 719.705,1639.06 717,1635.5C 691.736,1626.45 667.236,1615.62 643.5,1603C 639.167,1598.67 634.833,1594.33 630.5,1590C 608.5,1580.33 586.5,1570.67 564.5,1561C 531.833,1543.67 499.167,1526.33 466.5,1509C 462.843,1506.01 460.177,1502.34 458.5,1498C 430.378,1488.44 403.378,1476.44 377.5,1462C 374.898,1459.23 372.898,1456.06 371.5,1452.5C 312.632,1429.74 257.299,1400.74 205.5,1365.5C 201.909,1367.82 198.242,1367.99 194.5,1366C 191.794,1363.63 189.461,1360.96 187.5,1358C 144.971,1338.74 104.304,1316.41 65.5,1291C 60.964,1289.62 56.2973,1289.12 51.5,1289.5C 49.6418,1006.82 50.9751,724.149 55.5,441.5 Z"/></g>
<g><path style="opacity:1" fill="#5b7d91" d="M 99.5,469.5 C 103.627,469.635 106.294,471.635 107.5,475.5C 103.671,474.931 101.004,472.931 99.5,469.5 Z"/></g>
<g><path style="opacity:1" fill="#efb1a8" d="M 222.5,536.5 C 259.063,554.282 295.396,572.282 331.5,590.5C 330.5,590.5 329.5,590.5 328.5,590.5C 292.878,573.023 257.545,555.023 222.5,536.5 Z"/></g>
<g><path style="opacity:1" fill="#62889b" d="M 328.5,590.5 C 329.5,590.5 330.5,590.5 331.5,590.5C 333.806,592.139 335.806,594.139 337.5,596.5C 336.5,596.5 335.5,596.5 334.5,596.5C 332.194,594.861 330.194,592.861 328.5,590.5 Z"/></g>
<g><path style="opacity:1" fill="#efb0a8" d="M 334.5,596.5 C 335.5,596.5 336.5,596.5 337.5,596.5C 343.369,598.432 349.036,600.932 354.5,604C 384.999,620.364 415.332,636.864 445.5,653.5C 414.492,637.995 383.826,621.829 353.5,605C 347.288,601.554 340.955,598.721 334.5,596.5 Z"/></g>
<g><path style="opacity:1" fill="#efb0a8" d="M 730.5,805.5 C 773.248,828.03 815.581,850.03 857.5,871.5C 854.353,871.263 851.353,870.43 848.5,869C 808.75,848.371 769.417,827.205 730.5,805.5 Z"/></g>
<g><path style="opacity:0.007" fill="#2a2f36" d="M 644.5,1727.5 C 645.873,1727.34 647.207,1727.51 648.5,1728C 649.833,1730.33 651.167,1732.67 652.5,1735C 648.129,1735.83 643.795,1735.66 639.5,1734.5C 640.804,1731.87 642.47,1729.54 644.5,1727.5 Z"/></g>
</svg>
